<svg xmlns="http://www.w3.org/2000/svg" viewBox="0 2.75 128.75 47.849998474121094" data-asc="1" width="128.75" height="47.849998474121094"><defs/><g fill="#ffffff"><g transform="translate(0, 0)"><path d="M10.45 50.55Q6.78 50.55 4.03 49.33Q1.28 48.10 0 46.75L2.55 41.50Q3.08 42.17 4.21 43.02Q5.35 43.88 6.86 44.51Q8.38 45.15 10 45.15Q11.88 45.15 13.26 44.10Q14.65 43.05 14.65 41Q14.65 38.98 13.21 37.79Q11.78 36.60 9.30 35.10Q7.28 33.88 5.33 32.49Q3.38 31.10 2.09 29.09Q0.80 27.07 0.80 24Q0.80 19.88 3.44 17.21Q6.08 14.55 11.10 14.55Q13.65 14.55 15.44 15.15Q17.23 15.75 18.34 16.52Q19.45 17.30 20 17.80L17.20 22.90Q16.85 22.40 16.03 21.67Q15.20 20.95 14 20.40Q12.80 19.85 11.35 19.85Q9.33 19.85 8.31 21.01Q7.30 22.17 7.30 23.75Q7.30 25.77 8.79 27.05Q10.28 28.32 12.40 29.60Q14.75 31 16.75 32.41Q18.75 33.83 19.98 35.79Q21.20 37.75 21.20 40.80Q21.20 45.38 18.33 47.96Q15.45 50.55 10.45 50.55ZM31.90 50L31.90 20.80L23.85 20.80L23.85 15.15L46.40 15.15L46.40 20.80L38.35 20.80L38.35 50L31.90 50ZM44.70 50L59.45 14.55L59.95 14.55L74.75 50L67.95 50L66 44.95L53.55 44.95L51.70 50L44.70 50M58.85 30.60L55.35 40.10L64.15 40.10L60.50 30.60L59.65 27.80L58.85 30.60M50.25 11.90L58.10 2.75L61.20 2.75L68.85 11.90L63.80 11.90L59.68 7.67L55.25 11.90L50.25 11.90ZM81.90 50L81.90 35.92L70.90 15.15L77.95 15.15L85.28 30.30L92.30 15.15L99.30 15.15L88.30 36.38L88.30 50L81.90 50ZM114.30 50.60Q109.58 50.60 106.34 48.36Q103.10 46.13 101.43 42.08Q99.75 38.02 99.75 32.55Q99.75 27.13 101.40 23.07Q103.05 19.02 106.26 16.79Q109.48 14.55 114.15 14.55Q119.03 14.55 122.26 16.82Q125.50 19.10 127.13 23.15Q128.75 27.20 128.75 32.55Q128.75 38.02 127.08 42.08Q125.40 46.13 122.18 48.36Q118.95 50.60 114.30 50.60M114.30 45.25Q117.58 45.25 119.84 42.09Q122.10 38.92 122.10 32.40Q122.10 26.13 119.99 22.94Q117.88 19.75 114.15 19.75Q110.53 19.75 108.49 22.95Q106.45 26.15 106.45 32.45Q106.45 38.98 108.61 42.11Q110.78 45.25 114.30 45.25Z"/></g></g></svg>